# xmcd CD database file
#
# Track frame offsets:
#	150
#	17785
#	33760
#	45975
#
# Disc length: 974 seconds
#
# Revision: 0
# Processed by: cddbd v1.5.1PL0 Copyright (c) Steve Scherf et al.
# Submitted via: CDex 1.51
#
DISCID=2103cc04
DTITLE=The Pictures - I Dealt A Rollercoaster
DYEAR=2004
DGENRE=Rock
TTITLE0=I Dealt A Rollercoaster
TTITLE1=Hide Out
TTITLE2=You're So Mine
TTITLE3=And So The Story Goes
EXTD=YEAR: 2004
EXTT0=
EXTT1=
EXTT2=
EXTT3=
PLAYORDER=
